<mxfile host="Electron" agent="Mozilla/5.0 (Macintosh; Intel Mac OS X 10_15_7) AppleWebKit/537.36 (KHTML, like Gecko) draw.io/28.2.8 Chrome/140.0.7339.240 Electron/38.4.0 Safari/537.36" version="28.2.8">
  <diagram name="Seite-1" id="kSZL9XZ3l5jv9jZUYMf_">
    <mxGraphModel dx="1333" dy="896" grid="1" gridSize="10" guides="1" tooltips="1" connect="1" arrows="1" fold="1" page="1" pageScale="1" pageWidth="1169" pageHeight="827" math="0" shadow="0">
      <root>
        <mxCell id="0" />
        <mxCell id="1" parent="0" />
        <mxCell id="JikjJ0p1adLa2uhM40UA-1" value="End User" style="shape=umlActor;verticalLabelPosition=bottom;verticalAlign=top;html=1;outlineConnect=0;" vertex="1" parent="1">
          <mxGeometry x="40" y="384" width="30" height="60" as="geometry" />
        </mxCell>
        <mxCell id="JikjJ0p1adLa2uhM40UA-4" value="" style="endArrow=classic;html=1;rounded=0;entryX=-0.02;entryY=0.516;entryDx=0;entryDy=0;entryPerimeter=0;" edge="1" parent="1" target="JikjJ0p1adLa2uhM40UA-6">
          <mxGeometry relative="1" as="geometry">
            <mxPoint x="80" y="413.77" as="sourcePoint" />
            <mxPoint x="200" y="414" as="targetPoint" />
          </mxGeometry>
        </mxCell>
        <mxCell id="JikjJ0p1adLa2uhM40UA-5" value="(1) Request DPP" style="edgeLabel;resizable=0;html=1;;align=center;verticalAlign=middle;" connectable="0" vertex="1" parent="JikjJ0p1adLa2uhM40UA-4">
          <mxGeometry relative="1" as="geometry" />
        </mxCell>
        <mxCell id="JikjJ0p1adLa2uhM40UA-6" value="React Frontend" style="rounded=0;whiteSpace=wrap;html=1;" vertex="1" parent="1">
          <mxGeometry x="210" y="395" width="130" height="37" as="geometry" />
        </mxCell>
        <mxCell id="JikjJ0p1adLa2uhM40UA-7" value="" style="endArrow=classic;html=1;rounded=0;" edge="1" parent="1">
          <mxGeometry relative="1" as="geometry">
            <mxPoint x="340" y="413.77" as="sourcePoint" />
            <mxPoint x="500" y="414" as="targetPoint" />
          </mxGeometry>
        </mxCell>
        <mxCell id="JikjJ0p1adLa2uhM40UA-8" value="(2) GET /dpps/{id} HTTP" style="edgeLabel;resizable=0;html=1;;align=center;verticalAlign=middle;" connectable="0" vertex="1" parent="JikjJ0p1adLa2uhM40UA-7">
          <mxGeometry relative="1" as="geometry" />
        </mxCell>
        <mxCell id="JikjJ0p1adLa2uhM40UA-10" value="React Frontend" style="rounded=0;whiteSpace=wrap;html=1;" vertex="1" parent="1">
          <mxGeometry x="500" y="395" width="130" height="37" as="geometry" />
        </mxCell>
        <mxCell id="JikjJ0p1adLa2uhM40UA-15" value="" style="endArrow=none;dashed=1;html=1;rounded=0;" edge="1" parent="1">
          <mxGeometry width="50" height="50" relative="1" as="geometry">
            <mxPoint x="790" y="414.5" as="sourcePoint" />
            <mxPoint x="790" y="390" as="targetPoint" />
          </mxGeometry>
        </mxCell>
        <mxCell id="JikjJ0p1adLa2uhM40UA-16" value="" style="endArrow=classic;dashed=1;html=1;rounded=0;endFill=1;" edge="1" parent="1">
          <mxGeometry width="50" height="50" relative="1" as="geometry">
            <mxPoint x="790" y="389.93" as="sourcePoint" />
            <mxPoint x="830" y="389.93" as="targetPoint" />
          </mxGeometry>
        </mxCell>
        <mxCell id="JikjJ0p1adLa2uhM40UA-17" value="" style="endArrow=classic;html=1;rounded=0;" edge="1" parent="1">
          <mxGeometry width="50" height="50" relative="1" as="geometry">
            <mxPoint x="790" y="414" as="sourcePoint" />
            <mxPoint x="790" y="460" as="targetPoint" />
          </mxGeometry>
        </mxCell>
        <mxCell id="JikjJ0p1adLa2uhM40UA-19" value="Traefik Reverse Proxy" style="rounded=0;whiteSpace=wrap;html=1;dashed=1;" vertex="1" parent="1">
          <mxGeometry x="830" y="370" width="150" height="37" as="geometry" />
        </mxCell>
        <mxCell id="JikjJ0p1adLa2uhM40UA-20" value="" style="endArrow=none;html=1;rounded=0;endFill=0;" edge="1" parent="1">
          <mxGeometry relative="1" as="geometry">
            <mxPoint x="630" y="413.87" as="sourcePoint" />
            <mxPoint x="790" y="413.87" as="targetPoint" />
          </mxGeometry>
        </mxCell>
        <mxCell id="JikjJ0p1adLa2uhM40UA-21" value="(3) Forward to backend" style="edgeLabel;resizable=0;html=1;;align=center;verticalAlign=middle;" connectable="0" vertex="1" parent="JikjJ0p1adLa2uhM40UA-20">
          <mxGeometry relative="1" as="geometry" />
        </mxCell>
        <mxCell id="JikjJ0p1adLa2uhM40UA-22" value="Django Backend&lt;div&gt;(DPP API)&lt;/div&gt;" style="rounded=0;whiteSpace=wrap;html=1;" vertex="1" parent="1">
          <mxGeometry x="730" y="460" width="130" height="37" as="geometry" />
        </mxCell>
        <mxCell id="JikjJ0p1adLa2uhM40UA-23" value="" style="endArrow=none;html=1;rounded=0;exitX=0.16;exitY=0.977;exitDx=0;exitDy=0;exitPerimeter=0;dashed=1;endFill=0;" edge="1" parent="1">
          <mxGeometry width="50" height="50" relative="1" as="geometry">
            <mxPoint x="930" y="406.999" as="sourcePoint" />
            <mxPoint x="930" y="480" as="targetPoint" />
          </mxGeometry>
        </mxCell>
        <mxCell id="JikjJ0p1adLa2uhM40UA-24" value="" style="endArrow=classic;html=1;rounded=0;dashed=1;endFill=1;entryX=1.001;entryY=0.547;entryDx=0;entryDy=0;entryPerimeter=0;" edge="1" parent="1" target="JikjJ0p1adLa2uhM40UA-22">
          <mxGeometry width="50" height="50" relative="1" as="geometry">
            <mxPoint x="930" y="480" as="sourcePoint" />
            <mxPoint x="904.88" y="553.001" as="targetPoint" />
          </mxGeometry>
        </mxCell>
        <mxCell id="JikjJ0p1adLa2uhM40UA-25" value="BaSyx Environment&lt;div&gt;API&lt;/div&gt;" style="rounded=0;whiteSpace=wrap;html=1;" vertex="1" parent="1">
          <mxGeometry x="730" y="560" width="130" height="37" as="geometry" />
        </mxCell>
        <mxCell id="JikjJ0p1adLa2uhM40UA-27" value="" style="endArrow=none;html=1;rounded=0;startArrow=classic;startFill=1;endFill=0;" edge="1" parent="1">
          <mxGeometry relative="1" as="geometry">
            <mxPoint x="800" y="560" as="sourcePoint" />
            <mxPoint x="800" y="497" as="targetPoint" />
          </mxGeometry>
        </mxCell>
        <mxCell id="JikjJ0p1adLa2uhM40UA-28" value="(4) Query AAS via REST" style="edgeLabel;resizable=0;html=1;;align=center;verticalAlign=middle;" connectable="0" vertex="1" parent="JikjJ0p1adLa2uhM40UA-27">
          <mxGeometry relative="1" as="geometry" />
        </mxCell>
        <mxCell id="JikjJ0p1adLa2uhM40UA-29" value="" style="endArrow=none;html=1;rounded=0;startArrow=classic;startFill=1;endFill=0;exitX=1;exitY=0.5;exitDx=0;exitDy=0;" edge="1" parent="1" source="JikjJ0p1adLa2uhM40UA-31">
          <mxGeometry relative="1" as="geometry">
            <mxPoint x="570" y="578.23" as="sourcePoint" />
            <mxPoint x="730" y="578.23" as="targetPoint" />
          </mxGeometry>
        </mxCell>
        <mxCell id="JikjJ0p1adLa2uhM40UA-30" value="(5) Return Submodel Data" style="edgeLabel;resizable=0;html=1;;align=center;verticalAlign=middle;" connectable="0" vertex="1" parent="JikjJ0p1adLa2uhM40UA-29">
          <mxGeometry relative="1" as="geometry" />
        </mxCell>
        <mxCell id="JikjJ0p1adLa2uhM40UA-31" value="Django Backend" style="rounded=0;whiteSpace=wrap;html=1;" vertex="1" parent="1">
          <mxGeometry x="410" y="560" width="130" height="37" as="geometry" />
        </mxCell>
        <mxCell id="JikjJ0p1adLa2uhM40UA-32" value="" style="endArrow=classic;html=1;rounded=0;startArrow=none;startFill=0;endFill=1;" edge="1" parent="1">
          <mxGeometry relative="1" as="geometry">
            <mxPoint x="474.71" y="560" as="sourcePoint" />
            <mxPoint x="474.71" y="497" as="targetPoint" />
          </mxGeometry>
        </mxCell>
        <mxCell id="JikjJ0p1adLa2uhM40UA-33" value="(6) Return mapped JSON" style="edgeLabel;resizable=0;html=1;;align=center;verticalAlign=middle;" connectable="0" vertex="1" parent="JikjJ0p1adLa2uhM40UA-32">
          <mxGeometry relative="1" as="geometry" />
        </mxCell>
        <mxCell id="JikjJ0p1adLa2uhM40UA-35" value="" style="endArrow=none;html=1;rounded=0;startArrow=classic;startFill=1;endFill=0;" edge="1" parent="1" source="JikjJ0p1adLa2uhM40UA-34">
          <mxGeometry relative="1" as="geometry">
            <mxPoint x="80" y="420" as="sourcePoint" />
            <mxPoint x="440" y="478.27" as="targetPoint" />
          </mxGeometry>
        </mxCell>
        <mxCell id="JikjJ0p1adLa2uhM40UA-37" value="" style="endArrow=none;html=1;rounded=0;startArrow=none;startFill=0;endFill=0;" edge="1" parent="1" target="JikjJ0p1adLa2uhM40UA-34">
          <mxGeometry relative="1" as="geometry">
            <mxPoint x="60" y="480" as="sourcePoint" />
            <mxPoint x="440" y="478.27" as="targetPoint" />
          </mxGeometry>
        </mxCell>
        <mxCell id="JikjJ0p1adLa2uhM40UA-38" value="(7) Render UI Data" style="edgeLabel;resizable=0;html=1;;align=center;verticalAlign=middle;" connectable="0" vertex="1" parent="JikjJ0p1adLa2uhM40UA-37">
          <mxGeometry relative="1" as="geometry" />
        </mxCell>
        <mxCell id="JikjJ0p1adLa2uhM40UA-34" value="React Frontend" style="rounded=0;whiteSpace=wrap;html=1;" vertex="1" parent="1">
          <mxGeometry x="410" y="460" width="130" height="37" as="geometry" />
        </mxCell>
        <mxCell id="JikjJ0p1adLa2uhM40UA-39" value="" style="endArrow=classic;html=1;rounded=0;startArrow=none;startFill=0;endFill=1;" edge="1" parent="1">
          <mxGeometry width="50" height="50" relative="1" as="geometry">
            <mxPoint x="60" y="480" as="sourcePoint" />
            <mxPoint x="60" y="470" as="targetPoint" />
          </mxGeometry>
        </mxCell>
        <mxCell id="JikjJ0p1adLa2uhM40UA-40" value="" style="endArrow=none;dashed=1;html=1;rounded=0;" edge="1" parent="1">
          <mxGeometry width="50" height="50" relative="1" as="geometry">
            <mxPoint x="40" y="544.89" as="sourcePoint" />
            <mxPoint x="60" y="544.89" as="targetPoint" />
          </mxGeometry>
        </mxCell>
        <mxCell id="JikjJ0p1adLa2uhM40UA-41" value="Traefik Reverse Proxy only in use on server deployment" style="text;html=1;whiteSpace=wrap;strokeColor=none;fillColor=none;align=left;verticalAlign=middle;rounded=0;fontSize=11;fontStyle=2" vertex="1" parent="1">
          <mxGeometry x="70" y="530" width="290" height="30" as="geometry" />
        </mxCell>
      </root>
    </mxGraphModel>
  </diagram>
</mxfile>
